<?xml version="1.0" standalone="no"?>
<!DOCTYPE svg PUBLIC "-//W3C//DTD SVG 20010904//EN"
 "http://www.w3.org/TR/2001/REC-SVG-20010904/DTD/svg10.dtd">
<svg version="1.0" xmlns="http://www.w3.org/2000/svg"
 width="200.000000pt" height="200.000000pt" viewBox="0 0 200.000000 200.000000"
 preserveAspectRatio="xMidYMid meet">
<metadata>
Created by potrace 1.11, written by Peter Selinger 2001-2013
</metadata>
<g transform="translate(0.000000,200.000000) scale(0.100000,-0.100000)"
fill="#000000" stroke="none">
<path d="M1080 1629 c-546 -317 -511 -295 -504 -313 3 -8 69 -36 147 -62 78
-25 147 -51 153 -58 7 -6 33 -76 59 -156 46 -142 67 -179 89 -161 6 5 44 54
85 109 l73 99 111 -48 c76 -32 115 -45 123 -38 11 9 16 28 30 104 9 54 44 254
49 285 3 19 24 135 46 258 22 123 38 230 35 238 -3 8 -11 14 -18 14 -7 -1
-222 -122 -478 -271z m79 -125 l-257 -256 -98 32 c-55 18 -107 37 -117 42 -15
8 20 32 200 136 120 69 286 165 368 213 83 49 152 88 155 89 3 0 -110 -115
-251 -256z m320 89 c-15 -87 -30 -178 -34 -203 -3 -25 -10 -61 -15 -80 -4 -19
-16 -83 -26 -142 -9 -60 -20 -108 -24 -108 -6 0 -257 107 -272 116 -4 3 7 26
25 52 41 59 371 522 373 522 0 0 -12 -71 -27 -157z m-161 -15 c-115 -165 -254
-357 -269 -373 -10 -12 -27 -57 -37 -100 l-18 -80 -31 90 -31 90 202 203 c110
111 202 202 204 202 2 0 -7 -15 -20 -32z m-215 -459 c12 -7 24 -13 25 -15 4
-3 -78 -114 -85 -114 -2 0 -2 3 1 8 2 4 7 28 11 52 7 53 14 80 21 80 3 0 15
-5 27 -11z"/>
<path d="M340 860 c0 -21 64 -70 91 -70 24 0 31 26 11 42 -58 48 -102 61 -102
28z"/>
<path d="M805 842 c-39 -19 -47 -34 -31 -50 11 -11 19 -10 49 4 37 18 49 47
24 57 -7 3 -26 -2 -42 -11z"/>
<path d="M523 784 c-9 -23 11 -36 60 -41 32 -3 47 0 57 12 18 22 4 32 -58 38
-42 4 -54 2 -59 -9z"/>
<path d="M1770 667 c-37 -34 -68 -137 -73 -242 -2 -58 -3 -60 -39 -78 -24 -12
-46 -16 -60 -11 -20 6 -19 8 15 25 57 30 74 80 39 112 -30 28 -62 20 -103 -23
-21 -22 -40 -40 -43 -40 -3 0 -4 13 -4 29 1 33 -8 51 -27 51 -24 0 -45 -30
-45 -65 0 -18 -9 -43 -19 -56 l-19 -23 -1 64 c-1 67 -10 87 -35 77 -12 -5 -16
-21 -16 -60 0 -40 -5 -58 -18 -70 -39 -36 -44 -24 -28 71 7 38 6 42 -13 42
-12 0 -21 5 -21 11 0 18 -61 2 -87 -23 -12 -12 -25 -29 -29 -40 -3 -10 -12
-18 -21 -18 -12 0 -14 7 -9 33 3 17 2 38 -3 45 -14 22 -60 3 -87 -37 l-25 -36
7 43 c7 43 -3 53 -33 34 -24 -15 -37 -151 -18 -182 12 -19 36 -10 45 18 35 94
60 128 60 79 0 -28 18 -47 44 -47 13 0 28 -12 38 -30 19 -34 56 -40 82 -14 15
14 17 14 32 0 19 -20 38 -20 68 -1 21 14 24 14 29 0 11 -27 48 -16 86 25 40
44 76 52 86 20 18 -58 91 -77 152 -41 31 19 31 19 49 0 27 -30 71 -24 110 15
23 23 32 40 28 51 -6 14 -10 13 -33 -9 -27 -26 -65 -34 -76 -16 -3 5 9 36 27
67 45 78 58 109 68 162 16 88 -29 137 -80 88z m40 -69 c-1 -26 -12 -67 -30
-103 l-29 -60 4 57 c3 31 8 65 11 75 27 85 44 96 44 31z m-563 -155 c-3 -5 -8
-26 -11 -48 -8 -50 -32 -78 -46 -55 -5 8 -8 21 -5 28 3 8 5 19 5 26 0 15 37
56 51 56 6 0 8 -3 6 -7z m367 -34 c-17 -19 -44 -26 -44 -11 0 4 7 18 16 30 13
18 19 21 30 11 13 -10 12 -14 -2 -30z"/>
<path d="M245 631 c-22 -10 -48 -27 -57 -37 -54 -61 -67 -180 -27 -238 33 -48
61 -61 133 -61 l61 0 -41 -38 c-64 -58 -83 -125 -42 -151 44 -27 107 42 123
137 5 27 17 45 41 64 l35 26 22 -22 c13 -11 35 -21 49 -21 30 0 74 32 83 60 4
12 15 20 29 20 25 0 46 17 46 38 0 10 -9 12 -35 8 -30 -5 -35 -3 -35 13 0 25
-46 61 -77 61 -29 0 -83 -50 -83 -77 0 -24 -27 -63 -45 -63 -10 0 -11 9 -4 41
12 54 1 66 -57 64 -66 -3 -84 -45 -22 -50 15 -1 24 -9 26 -23 8 -50 -104 -56
-145 -7 -45 51 -23 173 37 209 54 31 105 13 98 -35 -4 -26 26 -49 42 -33 6 6
12 25 15 44 3 26 -2 39 -25 61 -34 35 -84 38 -145 10z m323 -233 c12 -38 12
-44 -4 -55 -24 -18 -44 1 -44 41 0 29 14 56 30 56 3 0 11 -19 18 -42z m-228
-187 c-17 -62 -50 -96 -50 -52 0 16 44 81 55 81 2 0 0 -13 -5 -29z"/>
<path d="M739 634 c-25 -8 -54 -23 -64 -34 -23 -25 -22 -80 1 -97 24 -17 42 0
36 35 -5 35 12 50 62 56 l38 5 -6 -37 c-3 -20 -8 -48 -10 -62 -3 -14 -8 -43
-12 -65 -4 -22 -7 -62 -8 -90 -1 -41 2 -50 18 -53 26 -5 34 6 40 58 9 71 16
120 30 185 l12 60 69 0 c62 0 70 2 70 19 0 13 -10 22 -30 28 -44 12 -193 7
-246 -8z"/>
</g>
</svg>
